<svg width="59" height="61" viewBox="0 0 59 61" fill="none" xmlns="http://www.w3.org/2000/svg">
<path d="M59 55.1346C59 57.8412 56.8058 60.0354 54.0991 60.0354L8.0058 60.0354C5.29914 60.0354 3.10495 57.8412 3.10495 55.1346L3.10495 9.04124C3.10495 6.33457 5.29913 4.14039 8.0058 4.14039L54.0991 4.14038C56.8058 4.14038 59 6.33457 59 9.04123L59 55.1346Z" fill="url(#paint0_linear_787_1542)"/>
<path d="M50.9937 55.2824L4.90033 55.2824C2.532 55.2824 0.612087 53.3625 0.612087 50.9942L0.612083 4.90085C0.612082 2.53252 2.532 0.612607 4.90033 0.612607L50.9937 0.612603C53.362 0.612602 55.2819 2.53252 55.2819 4.90085L55.2819 50.9942C55.2819 53.3625 53.362 55.2824 50.9937 55.2824Z" fill="white" stroke="black" stroke-width="1.22521"/>
<path d="M40.7773 22.0945L33.6719 14.9891C32.875 14.1922 31.8125 13.7273 30.6836 13.7273H20.7891C18.3984 13.7273 16.5391 15.6531 16.5391 17.9773V43.4773C16.5391 45.868 18.3984 47.7273 20.7891 47.7273H37.7891C40.1133 47.7273 42.0391 45.868 42.0391 43.4773V25.0828C42.0391 23.9539 41.5742 22.8914 40.7773 22.0945ZM31.4141 16.0516C31.6797 16.118 31.9453 16.2508 32.2109 16.5164L39.25 23.5555C39.5156 23.8211 39.6484 24.0867 39.7148 24.3523H32.4766C31.8789 24.3523 31.4141 23.8875 31.4141 23.2898V16.0516ZM39.9141 43.4773C39.9141 44.6727 38.918 45.6023 37.7891 45.6023H20.7891C19.5938 45.6023 18.6641 44.6727 18.6641 43.4773V17.9773C18.6641 16.8484 19.5938 15.8523 20.7891 15.8523H29.2891V23.2898C29.2891 25.0828 30.6836 26.4773 32.4766 26.4773H39.9141V43.4773ZM22.9141 31.7898C22.9141 32.3875 23.3789 32.8523 23.9766 32.8523H34.6016C35.1328 32.8523 35.6641 32.3875 35.6641 31.7898C35.6641 31.2586 35.1328 30.7273 34.6016 30.7273H23.9766C23.3789 30.7273 22.9141 31.2586 22.9141 31.7898ZM34.6016 34.9773H23.9766C23.3789 34.9773 22.9141 35.5086 22.9141 36.0398C22.9141 36.6375 23.3789 37.1023 23.9766 37.1023H34.6016C35.1328 37.1023 35.6641 36.6375 35.6641 36.0398C35.6641 35.5086 35.1328 34.9773 34.6016 34.9773ZM34.6016 39.2273H23.9766C23.3789 39.2273 22.9141 39.7586 22.9141 40.2898C22.9141 40.8875 23.3789 41.3523 23.9766 41.3523H34.6016C35.1328 41.3523 35.6641 40.8875 35.6641 40.2898C35.6641 39.7586 35.1328 39.2273 34.6016 39.2273Z" fill="#151515"/>
<defs>
<linearGradient id="paint0_linear_787_1542" x1="59" y1="32.0879" x2="3.10495" y2="32.0879" gradientUnits="userSpaceOnUse">
<stop stop-color="#589CBC"/>
<stop offset="0.530191" stop-color="#EE5B91"/>
<stop offset="1" stop-color="#F5CA32"/>
</linearGradient>
</defs>
</svg>
