<svg width="59" height="60" viewBox="0 0 59 60" fill="none" xmlns="http://www.w3.org/2000/svg">
<path d="M58.9648 55.102C58.9648 57.8071 56.772 60 54.0669 60L8.00074 60C5.29567 60 3.10278 57.8071 3.10278 55.102L3.10278 9.0359C3.10278 6.33083 5.29567 4.13794 8.00074 4.13794L54.0669 4.13794C56.7719 4.13794 58.9648 6.33083 58.9648 9.0359L58.9648 55.102Z" fill="url(#paint0_linear_787_1549)"/>
<path d="M50.9643 55.2498L4.8982 55.2498C2.53127 55.2498 0.612488 53.331 0.612487 50.9641L0.612483 4.89796C0.612483 2.53103 2.53126 0.612244 4.8982 0.612244L50.9643 0.61224C53.3313 0.61224 55.2501 2.53102 55.2501 4.89795L55.2501 50.9641C55.2501 53.331 53.3313 55.2498 50.9643 55.2498Z" fill="white" stroke="black" stroke-width="1.22449"/>
<path d="M18.1523 25.2843C17.9531 25.4836 17.6875 25.6164 17.3555 25.6164C17.0898 25.6828 16.7578 25.55 16.5586 25.3508L13.3711 22.1633C12.9727 21.7648 12.9727 21.0343 13.3711 20.6359C13.7695 20.2375 14.5 20.2375 14.8984 20.6359L17.2227 23.0265L21.8047 17.5148C22.2031 17.05 22.8672 17.05 23.332 17.382C23.7969 17.7804 23.7969 18.4445 23.4648 18.9093L18.1523 25.2843ZM18.1523 35.9093C17.9531 36.1086 17.6875 36.2414 17.3555 36.2414C17.0898 36.3078 16.7578 36.175 16.5586 35.9758L13.3711 32.7883C12.9727 32.3898 12.9727 31.6593 13.3711 31.2609C13.7695 30.8625 14.5 30.8625 14.8984 31.2609L17.2227 33.6515L21.8047 28.1398C22.2031 27.675 22.8672 27.675 23.332 28.007C23.7969 28.4054 23.7969 29.0695 23.4648 29.5343L18.1523 35.9093ZM25.7891 21.3664C25.7891 20.8351 26.3203 20.3039 26.8516 20.3039H46.043C46.5742 20.3039 47.1055 20.8351 47.1055 21.3664C47.1055 21.964 46.5742 22.4289 46.043 22.4289H26.8516C26.3203 22.4289 25.7891 21.964 25.7891 21.3664ZM25.7891 31.9914C25.7891 31.4601 26.3203 30.9289 26.8516 30.9289H46.043C46.5742 30.9289 47.1055 31.4601 47.1055 31.9914C47.1055 32.589 46.5742 33.0539 46.043 33.0539H26.8516C26.3203 33.0539 25.7891 32.589 25.7891 31.9914ZM23.6641 42.6164C23.6641 42.0851 24.1953 41.5539 24.7266 41.5539H46.043C46.5742 41.5539 47.1055 42.0851 47.1055 42.6164C47.1055 43.214 46.5742 43.6789 46.043 43.6789H24.7266C24.1953 43.6789 23.6641 43.214 23.6641 42.6164ZM17.2891 44.7414C16.1602 44.7414 15.1641 43.8117 15.1641 42.6164C15.1641 41.4875 16.1602 40.4914 17.2891 40.4914C18.4844 40.4914 19.4141 41.4875 19.4141 42.6164C19.4141 43.8117 18.4844 44.7414 17.2891 44.7414Z" fill="#151515"/>
<defs>
<linearGradient id="paint0_linear_787_1549" x1="58.9648" y1="32.069" x2="3.10278" y2="32.069" gradientUnits="userSpaceOnUse">
<stop stop-color="#589CBC"/>
<stop offset="0.530191" stop-color="#EE5B91"/>
<stop offset="1" stop-color="#F5CA32"/>
</linearGradient>
</defs>
</svg>
