<svg width="61" height="62" viewBox="0 0 61 62" fill="none" xmlns="http://www.w3.org/2000/svg">
<path d="M61 56.1019C61 58.8561 58.7673 61.0887 56.0132 61.0887L9.11111 61.0887C6.35695 61.0887 4.12427 58.8561 4.12427 56.1019L4.12426 9.19986C4.12426 6.4457 6.35695 4.21302 9.1111 4.21302L56.0132 4.21301C58.7673 4.21301 61 6.4457 61 9.19985L61 56.1019Z" fill="url(#paint0_linear_787_1556)"/>
<path d="M57.2175 51.8889C57.2175 54.2988 55.2639 56.2524 52.854 56.2524L5.95193 56.2524C3.54204 56.2524 1.58844 54.2988 1.58844 51.8889L1.58844 4.98684C1.58844 2.57695 3.54204 0.623357 5.95192 0.623356L52.854 0.623352C55.2639 0.623352 57.2175 2.57695 57.2175 4.98683L57.2175 51.8889Z" fill="white" stroke="black" stroke-width="1.24671"/>
<path d="M41.8799 21.9584L34.7744 14.8529C33.9775 14.0561 32.915 13.5912 31.7861 13.5912H21.8916C19.501 13.5912 17.6416 15.517 17.6416 17.8412V43.3412C17.6416 45.7318 19.501 47.5912 21.8916 47.5912H38.8916C41.2158 47.5912 43.1416 45.7318 43.1416 43.3412V24.9467C43.1416 23.8178 42.6768 22.7553 41.8799 21.9584ZM32.5166 15.9154C32.7822 15.9818 33.0479 16.1147 33.3135 16.3803L40.3525 23.4193C40.6182 23.685 40.751 23.9506 40.8174 24.2162H33.5791C32.9814 24.2162 32.5166 23.7514 32.5166 23.1537V15.9154ZM41.0166 43.3412C41.0166 44.5365 40.0205 45.4662 38.8916 45.4662H21.8916C20.6963 45.4662 19.7666 44.5365 19.7666 43.3412V17.8412C19.7666 16.7123 20.6963 15.7162 21.8916 15.7162H30.3916V23.1537C30.3916 24.9467 31.7861 26.3412 33.5791 26.3412H41.0166V43.3412ZM25.8096 34.8412C25.4111 34.4428 24.6807 34.4428 24.2822 34.8412C23.8838 35.2397 23.8838 35.9037 24.2822 36.3686L27.8682 39.8881C28.0674 40.0873 28.333 40.1537 28.5986 40.1537C28.8643 40.1537 29.1299 40.0873 29.3291 39.8881L36.4346 32.7826C36.833 32.3842 36.833 31.7201 36.4346 31.2553C36.0361 30.8568 35.3057 30.8568 34.9072 31.2553L28.5986 37.6303L25.8096 34.8412Z" fill="#151515"/>
<defs>
<linearGradient id="paint0_linear_787_1556" x1="61" y1="32.6509" x2="4.12427" y2="32.6509" gradientUnits="userSpaceOnUse">
<stop stop-color="#589CBC"/>
<stop offset="0.530191" stop-color="#EE5B91"/>
<stop offset="1" stop-color="#F5CA32"/>
</linearGradient>
</defs>
</svg>
