<svg width="74" height="74" viewBox="0 0 74 74" fill="none" xmlns="http://www.w3.org/2000/svg">
<path d="M7.9929 44.4142C7.9929 47.2398 8.6131 49.4092 9.4237 50.7216C10.4865 52.4406 12.0717 53.1689 13.6878 53.1689C15.7722 53.1689 17.6791 52.6516 21.3539 47.5692C24.2978 43.4955 27.7667 37.7775 30.1008 34.1928L34.0535 28.1196C36.7993 23.9019 39.9774 19.2132 43.6213 16.0351C46.5961 13.4411 49.8051 12 53.0347 12C58.4568 12 63.6216 15.1421 67.5743 21.0351C71.9001 27.4891 74 35.6185 74 44.0077C74 48.9949 73.017 52.6593 71.3443 55.5544C69.7282 58.3542 66.5784 61.1515 61.2798 61.1515V53.1689C65.8167 53.1689 66.9489 49 66.9489 44.2289C66.9489 37.4301 65.3637 29.885 61.8717 24.4937C59.3935 20.6697 56.1819 18.3331 52.6487 18.3331C48.8272 18.3331 45.7521 21.2152 42.296 26.3543C40.4586 29.0846 38.5723 32.412 36.4544 36.1666L34.123 40.2968C29.4394 48.6011 28.2531 50.4925 25.9113 53.614C21.8068 59.0799 18.3018 61.1515 13.6878 61.1515C8.2142 61.1515 4.75301 58.7814 2.60939 55.2096C0.859499 52.2991 0 48.4802 0 44.1286L7.9929 44.4142Z" fill="#0081FB"/>
<path d="M6.30469 21.5987C9.96917 15.9501 15.2575 12 21.3229 12C24.8356 12 28.3276 13.0397 31.9741 16.0171C35.9629 19.2724 40.2141 24.6327 45.5178 33.4671L47.4195 36.6375C52.0104 44.2856 54.6224 48.2203 56.151 50.0757C58.117 52.4586 59.4938 53.1689 61.2823 53.1689C65.8192 53.1689 66.9514 49 66.9514 44.2289L74.0025 44.0077C74.0025 48.9949 73.0195 52.6593 71.3468 55.5544C69.7307 58.3542 66.5809 61.1515 61.2823 61.1515C57.9884 61.1515 55.0702 60.4361 51.8431 57.3918C49.3624 55.0552 46.4622 50.9043 44.2311 47.1729L37.5944 36.0868C34.2644 30.5231 31.2098 26.3749 29.4419 24.4963C27.5402 22.4762 25.0955 20.0366 21.1942 20.0366C18.0367 20.0366 15.3553 22.2523 13.1113 25.6415L6.30469 21.5987Z" fill="url(#paint0_linear_1979_36)"/>
<path d="M21.1917 20.0366C18.0342 20.0366 15.3528 22.2523 13.1088 25.6415C9.93579 30.4305 7.9929 37.5639 7.9929 44.4142C7.9929 47.2398 8.6131 49.4092 9.4237 50.7216L2.60939 55.2096C0.859499 52.2991 0 48.4802 0 44.1286C0 36.2155 2.17192 27.9678 6.3022 21.5987C9.96668 15.9501 15.255 12 21.3204 12L21.1917 20.0366Z" fill="url(#paint1_linear_1979_36)"/>
<defs>
<linearGradient id="paint0_linear_1979_36" x1="15.7001" y1="42.1085" x2="66.6529" y2="44.6819" gradientUnits="userSpaceOnUse">
<stop stop-color="#0064E1"/>
<stop offset="0.4" stop-color="#0064E1"/>
<stop offset="0.83" stop-color="#0073EE"/>
<stop offset="1" stop-color="#0082FB"/>
</linearGradient>
<linearGradient id="paint1_linear_1979_36" x1="11.5802" y1="47.7699" x2="11.5802" y2="28.9843" gradientUnits="userSpaceOnUse">
<stop stop-color="#0082FB"/>
<stop offset="1" stop-color="#0064E0"/>
</linearGradient>
</defs>
</svg>
